<?xml version="1.0" standalone="no"?>
<!DOCTYPE svg PUBLIC "-//W3C//DTD SVG 20010904//EN"
 "http://www.w3.org/TR/2001/REC-SVG-20010904/DTD/svg10.dtd">
<svg version="1.0" xmlns="http://www.w3.org/2000/svg"
 width="256.000000pt" height="256.000000pt" viewBox="0 0 256.000000 256.000000"
 preserveAspectRatio="xMidYMid meet">
<metadata>
Created by potrace 1.14, written by Peter Selinger 2001-2017
</metadata>
<g transform="translate(0.000000,256.000000) scale(0.100000,-0.100000)"
fill="#000000" stroke="none">
<path d="M385 2550 c-47 -13 -185 -31 -240 -31 -27 0 -71 -3 -97 -6 l-48 -5 0
-39 0 -39 308 -1 c169 0 321 -2 337 -3 17 -1 57 -3 90 -5 l60 -3 -90 -19 c-49
-10 -118 -18 -152 -19 -35 0 -63 -4 -63 -10 0 -5 7 -10 15 -10 18 0 20 -19 3
-25 -7 -2 -35 -7 -63 -11 -27 -3 -44 -9 -37 -11 6 -3 12 -9 12 -14 0 -5 -89
-9 -210 -9 -116 0 -210 -4 -210 -8 0 -12 160 -22 390 -23 260 -2 310 -16 65
-19 -199 -2 -210 -13 -25 -25 159 -10 156 0 31 -128 -60 -62 -123 -127 -140
-144 -16 -18 -35 -33 -40 -33 -5 0 -29 -16 -52 -36 l-43 -36 67 7 c68 7 81 2
50 -21 -10 -7 -15 -16 -11 -20 4 -4 13 -2 20 3 7 6 30 13 51 16 40 6 51 -9 22
-33 -8 -7 -15 -18 -15 -25 0 -17 -79 -135 -91 -135 -5 0 -9 -5 -9 -11 0 -14
-25 -39 -39 -39 -6 0 -11 -7 -11 -15 0 -9 -7 -27 -16 -40 -15 -23 -15 -25 0
-25 21 0 20 -24 -1 -57 l-17 -26 39 7 c22 4 42 12 43 17 5 14 32 11 32 -3 -1
-38 -95 -182 -162 -251 -27 -26 -48 -51 -48 -54 0 -3 30 -3 66 0 l66 6 -33
-29 c-19 -16 -47 -36 -63 -44 -28 -14 -28 -14 -7 -25 17 -9 42 -8 114 5 50 9
97 21 104 26 17 14 26 -8 12 -34 -6 -12 -22 -33 -36 -47 l-23 -26 26 -3 c15
-2 37 1 48 6 12 5 40 15 64 21 25 7 42 18 42 26 0 8 2 15 4 15 2 0 29 -24 59
-54 34 -34 54 -62 53 -73 -2 -10 -1 -12 1 -5 5 14 33 17 33 3 0 -5 7 -12 16
-15 13 -5 14 -1 9 25 -4 17 -3 30 1 27 5 -2 23 -10 39 -17 17 -7 38 -17 47
-22 24 -12 48 -11 48 1 0 6 -4 10 -10 10 -5 0 -10 9 -10 20 0 18 -42 96 -59
110 -3 3 -11 14 -17 25 -6 11 -22 40 -36 65 -44 79 -51 113 -37 175 7 31 16
58 21 61 4 3 8 14 8 25 0 11 10 36 23 57 13 20 31 54 40 74 29 62 37 55 37
-33 0 -46 4 -79 8 -74 5 6 21 43 36 83 15 39 32 72 37 72 5 0 9 6 9 13 0 30
110 218 125 213 6 -1 16 -22 23 -47 7 -24 17 -52 23 -61 5 -10 9 -25 9 -33 0
-8 4 -23 9 -33 4 -9 13 -33 20 -52 10 -31 9 -37 -11 -52 -18 -14 -19 -18 -7
-18 9 0 27 -8 40 -19 28 -21 57 -18 35 4 -18 19 -30 142 -17 175 7 18 10 20
10 8 1 -10 6 -18 11 -18 6 0 10 -11 10 -25 0 -14 5 -25 10 -25 6 0 10 -9 10
-20 0 -21 14 -57 69 -170 38 -81 56 -104 70 -96 5 3 22 -26 37 -64 30 -73 44
-87 44 -45 0 16 6 25 15 25 13 0 15 21 15 125 0 69 4 125 8 125 5 0 15 -18 22
-40 7 -22 17 -40 21 -40 12 0 21 37 21 88 -1 53 30 219 45 246 8 14 12 11 23
-23 7 -23 17 -41 22 -41 4 0 8 -8 8 -17 0 -10 7 -27 15 -37 17 -22 20 -66 5
-66 -5 0 -10 -4 -10 -10 0 -5 9 -10 19 -10 11 0 27 -7 35 -16 15 -14 16 -13
16 13 0 15 -5 57 -10 91 -13 76 -6 110 16 88 8 -8 14 -19 14 -25 0 -6 3 -11 8
-11 9 0 42 -58 42 -75 0 -7 4 -15 8 -17 5 -1 29 -34 53 -73 24 -38 47 -71 51
-73 4 -2 8 -11 8 -20 0 -27 13 -3 15 28 5 92 4 89 21 50 9 -19 26 -55 38 -80
12 -25 35 -83 51 -130 l28 -86 -32 -66 c-18 -36 -41 -75 -52 -87 -10 -11 -19
-24 -19 -28 0 -5 -11 -20 -25 -35 -14 -15 -25 -30 -25 -34 0 -4 -8 -14 -18
-23 -11 -9 -24 -25 -30 -36 -10 -20 -8 -21 46 -19 52 2 140 21 152 34 3 3 21
13 40 22 46 24 73 41 82 53 4 6 8 -2 8 -16 0 -29 -4 -27 119 -45 l44 -7 -37
39 c-57 61 -54 62 69 38 95 -19 195 -29 195 -19 0 4 -20 27 -45 51 -25 23 -45
48 -45 55 0 8 4 8 15 -1 35 -29 25 3 -14 47 -45 51 -48 55 -69 92 -10 17 -11
26 -3 34 8 8 11 8 11 -1 0 -7 7 -12 15 -12 15 0 64 -27 75 -41 3 -3 15 -10 28
-14 26 -8 28 -10 -40 68 -15 18 -35 48 -45 67 -10 19 -21 37 -25 38 -5 2 -8
12 -8 22 0 9 -6 23 -14 30 -8 6 -27 44 -42 83 -14 40 -30 81 -35 92 -4 11 -10
38 -14 60 -3 22 -8 57 -11 78 -4 20 -4 37 0 37 5 0 63 -52 117 -104 39 -38 52
-33 31 12 -9 20 -20 39 -24 40 -5 2 -8 10 -8 17 0 7 -4 15 -10 17 -5 2 -11 13
-13 26 -2 12 -9 28 -15 34 -7 7 -12 15 -12 20 0 4 -11 31 -24 60 -24 53 -38
89 -40 98 -3 14 -118 189 -136 205 -11 10 -20 23 -20 30 0 6 -12 22 -26 34
-14 12 -23 26 -19 29 4 4 127 9 273 12 l267 6 -293 2 c-307 2 -311 3 -360 49
-18 17 -66 39 -137 62 -33 11 -58 21 -55 23 3 1 194 5 425 8 l420 5 -427 3
c-271 1 -429 6 -433 12 -4 7 140 10 424 10 l431 0 0 23 c0 22 -2 22 -87 19
-149 -6 -562 10 -531 20 17 6 25 14 21 24 -4 12 -115 14 -777 13 -424 -1 -784
-5 -801 -9z m465 -101 c-57 -10 -565 -9 -605 1 -16 4 123 8 310 8 201 0 322
-4 295 -9z m-40 -375 c0 -17 -12 -39 -32 -59 -18 -17 -47 -48 -65 -68 -18 -20
-35 -33 -38 -28 -3 5 -15 7 -27 3 -16 -4 -19 -2 -13 9 12 21 159 169 168 169
4 0 7 -12 7 -26z m918 -4 c39 -24 42 -24 42 -4 0 26 23 2 55 -58 16 -29 31
-55 35 -58 4 -3 9 -13 13 -22 8 -23 -21 -12 -48 17 -11 12 -27 25 -36 28 -13
4 -16 1 -11 -16 3 -16 -4 -11 -27 17 -17 21 -31 43 -31 48 0 5 -9 18 -20 30
-37 40 -24 49 28 18z m-452 -54 c-8 -53 -26 -71 -26 -27 0 17 5 31 10 31 6 0
10 12 10 27 0 14 3 24 6 20 4 -3 3 -26 0 -51z m51 -33 c-3 -10 -5 -4 -5 12 0
17 2 24 5 18 2 -7 2 -21 0 -30z m648 -39 l7 -29 -21 33 c-24 37 -28 60 -6 39
7 -8 17 -28 20 -43z m65 -490 c0 -8 -4 -12 -10 -9 -5 3 -10 13 -10 21 0 8 5
12 10 9 6 -3 10 -13 10 -21z m115 4 c-4 -13 -9 -35 -12 -50 -3 -16 -9 -28 -14
-28 -5 0 -9 -8 -9 -17 0 -10 -7 -30 -15 -46 -12 -24 -12 -33 2 -75 9 -26 20
-55 24 -64 11 -22 12 -48 1 -48 -5 0 -16 25 -26 55 -9 30 -20 55 -24 55 -8 0
-28 -43 -38 -83 -8 -33 -24 -46 -24 -18 0 10 3 21 8 23 4 2 15 33 24 69 16 61
16 71 2 118 -8 29 -13 60 -11 69 3 10 5 5 6 -10 0 -16 6 -28 11 -28 6 0 10 -7
10 -15 0 -30 29 -14 40 23 7 20 16 41 21 47 5 5 9 17 9 27 0 10 5 18 11 18 7
0 9 -8 4 -22z"/>
<path d="M988 1523 c7 -3 16 -2 19 1 4 3 -2 6 -13 5 -11 0 -14 -3 -6 -6z"/>
<path d="M1528 1523 c7 -3 16 -2 19 1 4 3 -2 6 -13 5 -11 0 -14 -3 -6 -6z"/>
<path d="M835 1390 c-16 -5 -46 -12 -66 -15 -30 -4 -38 -11 -42 -33 -3 -15
-19 -45 -36 -66 -29 -37 -30 -41 -16 -62 8 -13 15 -30 15 -39 0 -8 5 -15 10
-15 6 0 10 -6 10 -14 0 -7 8 -16 18 -18 15 -4 17 0 14 24 -2 15 -8 31 -13 34
-16 10 -9 60 11 82 11 12 20 24 20 27 0 10 28 35 39 35 6 0 11 5 11 10 0 14
112 13 147 -1 49 -20 98 -44 103 -50 3 -4 15 -9 27 -13 21 -7 22 -5 12 21 -19
54 -190 115 -264 93z"/>
<path d="M1571 1364 c-42 -19 -57 -33 -65 -64 -3 -14 -3 -19 0 -12 3 6 14 12
24 12 10 0 21 4 24 9 8 13 100 41 134 41 38 0 89 -22 127 -55 26 -23 30 -34
30 -76 0 -31 -5 -53 -14 -58 -8 -5 -9 -11 -3 -15 18 -11 37 4 59 48 l22 44
-34 54 c-27 43 -44 59 -78 72 -53 20 -179 20 -226 0z"/>
<path d="M1624 1283 c7 -30 -18 -73 -43 -73 -6 0 -11 -12 -11 -28 0 -27 1 -28
53 -22 l52 5 3 48 c3 50 -6 70 -41 88 -17 10 -18 8 -13 -18z"/>
<path d="M950 1290 c-10 -6 -11 -10 -2 -10 6 0 12 -11 12 -25 0 -24 -9 -30
-37 -26 -9 1 -13 -12 -13 -37 l0 -40 46 6 c32 3 49 1 54 -8 16 -25 24 79 9
108 -22 42 -40 51 -69 32z"/>
<path d="M933 1120 c2 -8 16 -16 33 -17 25 -1 26 0 4 4 -14 3 -29 10 -33 17
-6 7 -7 6 -4 -4z"/>
<path d="M676 698 c-3 -7 -8 -43 -11 -80 -4 -37 -11 -70 -16 -73 -14 -9 -11
-25 5 -25 8 0 32 21 53 48 21 26 42 50 48 54 15 11 -28 83 -53 86 -12 2 -24
-3 -26 -10z"/>
<path d="M1869 625 c-23 -55 -25 -67 -13 -82 7 -10 14 -26 14 -35 0 -10 6 -18
14 -18 14 0 19 24 32 148 8 74 -14 68 -47 -13z"/>
<path d="M820 509 c0 -6 9 -49 21 -95 11 -47 18 -88 15 -91 -3 -4 -1 -12 4
-18 7 -9 0 -20 -27 -41 -93 -70 -105 -86 -99 -127 6 -38 21 -70 44 -95 6 -7
12 -20 12 -28 0 -11 15 -14 60 -14 48 0 60 3 60 16 0 12 6 15 24 10 14 -3 28
-1 32 5 14 23 18 277 5 312 -5 12 -6 27 -4 32 3 10 -130 145 -142 145 -3 0 -5
-5 -5 -11z m79 -167 c-5 -2 -9 -11 -9 -20 -1 -15 -2 -15 -9 -2 -5 8 -7 28 -4
44 l6 29 13 -24 c7 -13 8 -25 3 -27z"/>
<path d="M1724 432 l-71 -67 -2 -93 c-1 -51 -5 -100 -8 -108 -3 -8 0 -48 8
-89 l13 -75 58 0 c32 0 58 3 58 8 0 4 11 20 25 36 14 16 25 32 25 36 0 3 8 15
19 26 26 28 35 61 19 71 -7 4 -30 27 -50 50 -34 38 -36 46 -33 95 1 29 7 81
12 116 5 34 7 62 4 62 -3 0 -38 -31 -77 -68z"/>
<path d="M920 10 c0 -5 5 -10 10 -10 6 0 10 5 10 10 0 6 -4 10 -10 10 -5 0
-10 -4 -10 -10z"/>
</g>
</svg>
