<?xml version="1.0" encoding="utf-8"?>
<svg version="1.0" width="256.000000pt" height="256.000000pt" viewBox="0 0 256.000000 256.000000" preserveAspectRatio="xMidYMid meet" xmlns="http://www.w3.org/2000/svg">
  <defs/>
  <g transform="translate(0.000000,256.000000) scale(0.100000,-0.100000)" fill="#000000" stroke="none">
    <path d="M 703.292 2450.144 C 656.292 2437.144 745.373 2392.409 690.373 2392.409 C 663.373 2392.409 693.468 2401.826 667.468 2398.826 L 689.387 2408.209 L 663.188 2397.879 L 712.482 2428.732 L 648.812 2389.092 C 817.812 2389.092 714.976 2432.607 730.976 2431.607 C 747.976 2430.607 702 2423 735 2421 L 795 2418 L 705 2399 C 656 2389 587 2381 553 2380 C 518 2380 490 2376 490 2370 C 490 2365 497 2360 505 2360 C 523 2360 525 2341 508 2335 C 501 2333 496.434 2330.798 468.434 2326.798 C 441.434 2323.798 420.765 2327.945 427.765 2325.945 C 433.765 2322.945 465.188 2312.107 465.188 2307.107 C 465.188 2302.107 720.607 2319.905 599.607 2319.905 C 483.607 2319.905 679.377 2402.838 679.377 2398.838 C 679.377 2386.838 253.451 2323.547 483.451 2322.547 C 743.451 2320.547 795.321 2325.238 550.321 2322.238 C 351.321 2320.238 522.263 2260.823 504.761 2172.012 C 473.958 2015.704 586 2215 461 2087 C 401 2025 338 1960 321 1943 C 305 1925 286 1910 281 1910 C 276 1910 252 1894 229 1874 L 186 1838 L 253 1845 C 321 1852 334 1847 303 1824 C 293 1817 288 1808 292 1804 C 296 1800 305 1802 312 1807 C 319 1813 342 1820 363 1823 C 403 1829 414 1814 385 1790 C 377 1783 370 1772 370 1765 C 370 1748 291 1630 279 1630 C 274 1630 270 1625 270 1619 C 270 1605 245 1580 231 1580 C 225 1580 220 1573 220 1565 C 220 1556 213 1538 204 1525 C 189 1502 189 1500 204 1500 C 225 1500 224 1476 203 1443 L 186 1417 L 225 1424 C 247 1428 267 1436 268 1441 C 273 1455 300 1452 300 1438 C 299 1400 205 1256 138 1187 C 111 1161 90 1136 90 1133 C 90 1130 120 1130 156 1133 L 222 1139 L 189 1110 C 170 1094 142 1074 126 1066 C 98 1052 98 1052 119 1041 C 136 1032 161 1033 233 1046 C 283 1055 330 1067 337 1072 C 354 1086 363 1064 349 1038 C 343 1026 327 1005 313 991 L 290 965 L 316 962 C 331 960 353 963 364 968 C 376 973 404 983 428 989 C 453 996 470 1007 470 1015 C 470 1023 472 1030 474 1030 C 476 1030 503 1006 533 976 C 567 942 587 914 586 903 C 584 893 585 891 587 898 C 592 912 620 915 620 901 C 620 896 627 889 636 886 C 649 881 650 885 645 911 C 641 928 642 941 646 938 C 651 936 669 928 685 921 C 702 914 723 904 732 899 C 756 887 780 888 780 900 C 780 906 776 910 770 910 C 765 910 760 919 760 930 C 760 948 718 1026 701 1040 C 698 1043 690 1054 684 1065 C 678 1076 662 1105 648 1130 C 604 1209 597 1243 611 1305 C 618 1336 627 1363 632 1366 C 636 1369 640 1380 640 1391 C 640 1402 650 1427 663 1448 C 676 1468 694 1502 703 1522 C 732 1584 740 1577 740 1489 C 740 1443 744 1410 748 1415 C 753 1421 769 1458 784 1498 C 799 1537 816 1570 821 1570 C 826 1570 830 1576 830 1583 C 830 1613 940 1801 955 1796 C 961 1795 971 1774 978 1749 C 985 1725 995 1697 1001 1688 C 1006 1678 1010 1663 1010 1655 C 1010 1647 1014 1632 1019 1622 C 1023 1613 1032 1589 1039 1570 C 1049 1539 1048 1533 1028 1518 C 1010 1504 1009 1500 1021 1500 C 1030 1500 1048 1492 1061 1481 C 1089 1460 1118 1463 1096 1485 C 1078 1504 1066 1627 1079 1660 C 1086 1678 1089 1680 1089 1668 C 1090 1658 1095 1650 1100 1650 C 1106 1650 1110 1639 1110 1625 C 1110 1611 1115 1600 1120 1600 C 1126 1600 1130 1591 1130 1580 C 1130 1559 1144 1523 1199 1410 C 1237 1329 1255 1306 1269 1314 C 1274 1317 1291 1288 1306 1250 C 1336 1177 1350 1163 1350 1205 C 1350 1221 1356 1230 1365 1230 C 1378 1230 1380 1251 1380 1355 C 1380 1424 1384 1480 1388 1480 C 1393 1480 1403 1462 1410 1440 C 1417 1418 1427 1400 1431 1400 C 1443 1400 1452 1437 1452 1488 C 1451 1541 1482 1707 1497 1734 C 1505 1748 1509 1745 1520 1711 C 1527 1688 1537 1670 1542 1670 C 1546 1670 1550 1662 1550 1653 C 1550 1643 1557 1626 1565 1616 C 1582 1594 1585 1550 1570 1550 C 1565 1550 1560 1546 1560 1540 C 1560 1535 1569 1530 1579 1530 C 1590 1530 1606 1523 1614 1514 C 1629 1500 1630 1501 1630 1527 C 1630 1542 1625 1584 1620 1618 C 1607 1694 1614 1728 1636 1706 C 1644 1698 1650 1687 1650 1681 C 1650 1675 1653 1670 1658 1670 C 1667 1670 1700 1612 1700 1595 C 1700 1588 1704 1580 1708 1578 C 1713 1577 1737 1544 1761 1505 C 1785 1467 1808 1434 1812 1432 C 1816 1430 1820 1421 1820 1412 C 1820 1385 1833 1409 1835 1440 C 1840 1532 1839 1529 1856 1490 C 1865 1471 1882 1435 1894 1410 C 1906 1385 1929 1327 1945 1280 L 1973 1194 L 1941 1128 C 1923 1092 1900 1053 1889 1041 C 1879 1030 1870 1017 1870 1013 C 1870 1008 1859 993 1845 978 C 1831 963 1820 948 1820 944 C 1820 940 1812 930 1802 921 C 1791 912 1778 896 1772 885 C 1762 865 1764 864 1818 866 C 1870 868 1958 887 1970 900 C 1973 903 1991 913 2010 922 C 2056 946 2083 963 2092 975 C 2096 981 2100 973 2100 959 C 2100 930 2096 932 2219 914 L 2263 907 L 2226 946 C 2169 1007 2172 1008 2295 984 C 2390 965 2490 955 2490 965 C 2490 969 2470 992 2445 1016 C 2420 1039 2400 1064 2400 1071 C 2400 1079 2404 1079 2415 1070 C 2450 1041 2440 1073 2401 1117 C 2356 1168 2353 1172 2332 1209 C 2322 1226 2321 1235 2329 1243 C 2337 1251 2340 1251 2340 1242 C 2340 1235 2347 1230 2355 1230 C 2370 1230 2419 1203 2430 1189 C 2433 1186 2445 1179 2458 1175 C 2484 1167 2486 1165 2418 1243 C 2403 1261 2383 1291 2373 1310 C 2363 1329 2352 1347 2348 1348 C 2343 1350 2340 1360 2340 1370 C 2340 1379 2334 1393 2326 1400 C 2318 1406 2299 1444 2284 1483 C 2270 1523 2254 1564 2249 1575 C 2245 1586 2239 1613 2235 1635 C 2232 1657 2227 1692 2224 1713 C 2220 1733 2220 1750 2224 1750 C 2229 1750 2287 1698 2341 1646 C 2380 1608 2393 1613 2372 1658 C 2363 1678 2352 1697 2348 1698 C 2343 1700 2340 1708 2340 1715 C 2340 1722 2336 1730 2330 1732 C 2325 1734 2319 1745 2317 1758 C 2315 1770 2308 1786 2302 1792 C 2295 1799 2290 1807 2290 1812 C 2290 1816 2279 1843 2266 1872 C 2242 1925 2228 1961 2226 1970 C 2223 1984 2118.347 2147.504 2100.347 2163.504 C 2089.347 2173.504 2070 2198 2070 2205 C 2070 2211 2136.175 2206.307 2122.175 2218.307 C 2108.175 2230.307 2021 2265 2025 2268 C 2024.243 2275.568 1712.778 2335.059 1862.715 2335.107 L 1698.42 2296.124 L 1862.082 2334.718 C 1555.082 2336.718 2184.925 2249.316 2135.925 2295.316 C 2117.925 2312.316 1846 2376 1775 2399 C 1742 2410 1717 2420 1720 2422 C 1723 2423 1618.286 2388.829 1849.286 2391.829 L 1837.768 2394.031 L 1847.608 2415.43 C 1429.338 2514.612 1709 2444 1705 2450 C 1701 2457 1824.258 2257.693 2108.258 2257.693 L 1821.12 2433.454 L 1813.191 2417.782 C 1812.423 2439.703 1848.07 2429.83 1793.249 2429.952 C 1644.129 2430.284 1836.235 2356.712 1867.235 2366.712 C 1884.235 2372.712 1812.413 2451.078 1808.413 2461.078 C 1812.704 2419.673 1888.76 2550.479 1226.76 2549.479 C 802.76 2548.479 720.292 2454.144 703.292 2450.144 Z M 850 2449 C 793 2439 807.18 2443.039 767.18 2453.039 C 751.18 2457.039 511.916 2388.846 698.916 2388.846 C 899.916 2388.846 877 2454 850 2449 Z M 810 2074 C 810 2057 798 2035 778 2015 C 760 1998 731 1967 713 1947 C 695 1927 678 1914 675 1919 C 672 1924 660 1926 648 1922 C 632 1918 629 1920 635 1931 C 647 1952 794 2100 803 2100 C 807 2100 810 2088 810 2074 Z M 1728 2070 C 1767 2046 1770 2046 1770 2066 C 1770 2092 1793 2068 1825 2008 C 1841 1979 1856 1953 1860 1950 C 1864 1947 1869 1937 1873 1928 C 1881 1905 1852 1916 1825 1945 C 1814 1957 1798 1970 1789 1973 C 1776 1977 1773 1974 1778 1957 C 1781 1941 1774 1946 1751 1974 C 1734 1995 1720 2017 1720 2022 C 1720 2027 1711 2040 1700 2052 C 1663 2092 1676 2101 1728 2070 Z M 1276 2016 C 1268 1963 1250 1945 1250 1989 C 1250 2006 1255 2020 1260 2020 C 1266 2020 1270 2032 1270 2047 C 1270 2061 1273 2071 1276 2067 C 1280 2064 1279 2041 1276 2016 Z M 1327 1983 C 1324 1973 1322 1979 1322 1995 C 1322 2012 1324 2019 1327 2013 C 1329 2006 1329 1992 1327 1983 Z M 1975 1944 L 1982 1915 L 1961 1948 C 1937 1985 1933 2008 1955 1987 C 1962 1979 1972 1959 1975 1944 Z M 2040 1454 C 2040 1446 2036 1442 2030 1445 C 2025 1448 2020 1458 2020 1466 C 2020 1474 2025 1478 2030 1475 C 2036 1472 2040 1462 2040 1454 Z M 2155 1458 C 2151 1445 2146 1423 2143 1408 C 2140 1392 2134 1380 2129 1380 C 2124 1380 2120 1372 2120 1363 C 2120 1353 2113 1333 2105 1317 C 2093 1293 2093 1284 2107 1242 C 2116 1216 2127 1187 2131 1178 C 2142 1156 2143 1130 2132 1130 C 2127 1130 2116 1155 2106 1185 C 2097 1215 2086 1240 2082 1240 C 2074 1240 2054 1197 2044 1157 C 2036 1124 2020 1111 2020 1139 C 2020 1149 2023 1160 2028 1162 C 2032 1164 2043 1195 2052 1231 C 2068 1292 2068 1302 2054 1349 C 2046 1378 2041 1409 2043 1418 C 2046 1428 2048 1423 2049 1408 C 2049 1392 2055 1380 2060 1380 C 2066 1380 2070 1373 2070 1365 C 2070 1335 2099 1351 2110 1388 C 2117 1408 2126 1429 2131 1435 C 2136 1440 2140 1452 2140 1462 C 2140 1472 2145 1480 2151 1480 C 2158 1480 2160 1472 2155 1458 Z"/>
    <path d="M988 1523 c7 -3 16 -2 19 1 4 3 -2 6 -13 5 -11 0 -14 -3 -6 -6z"/>
    <path d="M1528 1523 c7 -3 16 -2 19 1 4 3 -2 6 -13 5 -11 0 -14 -3 -6 -6z"/>
    <path d="M835 1390 c-16 -5 -46 -12 -66 -15 -30 -4 -38 -11 -42 -33 -3 -15&#10;-19 -45 -36 -66 -29 -37 -30 -41 -16 -62 8 -13 15 -30 15 -39 0 -8 5 -15 10&#10;-15 6 0 10 -6 10 -14 0 -7 8 -16 18 -18 15 -4 17 0 14 24 -2 15 -8 31 -13 34&#10;-16 10 -9 60 11 82 11 12 20 24 20 27 0 10 28 35 39 35 6 0 11 5 11 10 0 14&#10;112 13 147 -1 49 -20 98 -44 103 -50 3 -4 15 -9 27 -13 21 -7 22 -5 12 21 -19&#10;54 -190 115 -264 93z"/>
    <path d="M1571 1364 c-42 -19 -57 -33 -65 -64 -3 -14 -3 -19 0 -12 3 6 14 12&#10;24 12 10 0 21 4 24 9 8 13 100 41 134 41 38 0 89 -22 127 -55 26 -23 30 -34&#10;30 -76 0 -31 -5 -53 -14 -58 -8 -5 -9 -11 -3 -15 18 -11 37 4 59 48 l22 44&#10;-34 54 c-27 43 -44 59 -78 72 -53 20 -179 20 -226 0z"/>
    <path d="M1624 1283 c7 -30 -18 -73 -43 -73 -6 0 -11 -12 -11 -28 0 -27 1 -28&#10;53 -22 l52 5 3 48 c3 50 -6 70 -41 88 -17 10 -18 8 -13 -18z"/>
    <path d="M950 1290 c-10 -6 -11 -10 -2 -10 6 0 12 -11 12 -25 0 -24 -9 -30&#10;-37 -26 -9 1 -13 -12 -13 -37 l0 -40 46 6 c32 3 49 1 54 -8 16 -25 24 79 9&#10;108 -22 42 -40 51 -69 32z"/>
    <path d="M933 1120 c2 -8 16 -16 33 -17 25 -1 26 0 4 4 -14 3 -29 10 -33 17&#10;-6 7 -7 6 -4 -4z"/>
    <path d="M676 698 c-3 -7 -8 -43 -11 -80 -4 -37 -11 -70 -16 -73 -14 -9 -11&#10;-25 5 -25 8 0 32 21 53 48 21 26 42 50 48 54 15 11 -28 83 -53 86 -12 2 -24&#10;-3 -26 -10z"/>
    <path d="M1869 625 c-23 -55 -25 -67 -13 -82 7 -10 14 -26 14 -35 0 -10 6 -18&#10;14 -18 14 0 19 24 32 148 8 74 -14 68 -47 -13z"/>
    <path d="M820 509 c0 -6 9 -49 21 -95 11 -47 18 -88 15 -91 -3 -4 -1 -12 4&#10;-18 7 -9 0 -20 -27 -41 -93 -70 -105 -86 -99 -127 6 -38 21 -70 44 -95 6 -7&#10;12 -20 12 -28 0 -11 15 -14 60 -14 48 0 60 3 60 16 0 12 6 15 24 10 14 -3 28&#10;-1 32 5 14 23 18 277 5 312 -5 12 -6 27 -4 32 3 10 -130 145 -142 145 -3 0 -5&#10;-5 -5 -11z m79 -167 c-5 -2 -9 -11 -9 -20 -1 -15 -2 -15 -9 -2 -5 8 -7 28 -4&#10;44 l6 29 13 -24 c7 -13 8 -25 3 -27z"/>
    <path d="M1724 432 l-71 -67 -2 -93 c-1 -51 -5 -100 -8 -108 -3 -8 0 -48 8&#10;-89 l13 -75 58 0 c32 0 58 3 58 8 0 4 11 20 25 36 14 16 25 32 25 36 0 3 8 15&#10;19 26 26 28 35 61 19 71 -7 4 -30 27 -50 50 -34 38 -36 46 -33 95 1 29 7 81&#10;12 116 5 34 7 62 4 62 -3 0 -38 -31 -77 -68z"/>
    <path d="M920 10 c0 -5 5 -10 10 -10 6 0 10 5 10 10 0 6 -4 10 -10 10 -5 0&#10;-10 -4 -10 -10z"/>
    <path d="M 1318.22 904.721 C 1330.88 895.293 1347.156 898.435 1352.581 907.862 C 1359.816 917.29 1348.964 926.716 1329.072 923.575 C 1309.178 923.575 1303.753 914.147 1318.22 904.721 Z" style=""/>
  </g>
  <path d="M 124.882 189.936 C 132.633 189.539 142.595 189.671 145.915 190.07 C 150.346 190.467 143.702 190.864 131.522 190.731 C 119.34 190.731 116.021 190.334 124.882 189.936 Z" style=""/>
</svg>